<svg class="features__item-icon" fill="none" height="75" viewBox="0 0 79 75" width="79"
     xmlns="http://www.w3.org/2000/svg">
  <path clip-rule="evenodd"
        d="M36.1074 28.0564C28.6813 21.952 22.664 14.6825 18.1423 6.21291C17.2379 4.52595 15.1336 3.88246 13.4293 4.78681C11.7423 5.69115 11.0987 7.79554 12.0031 9.49989C16.977 18.7695 23.551 26.7347 31.6902 33.4303C33.1684 34.6477 35.377 34.439 36.5944 32.9607C37.8118 31.4651 37.5857 29.2738 36.1074 28.0564Z"
        fill="#F5FA93"
        fill-rule="evenodd"/>
  <path clip-rule="evenodd"
        d="M32.1474 4.28254C32.53 11.3086 32.8779 18.3347 33.3127 25.3608C33.4344 27.2738 35.0866 28.7347 36.9996 28.613C38.9127 28.4912 40.3735 26.8391 40.2518 24.926C39.817 17.9173 39.4691 10.9087 39.0865 3.88257C38.9822 1.97474 37.33 0.50517 35.417 0.612996C33.5039 0.720822 32.0257 2.36428 32.1474 4.28254Z"
        fill="#F5FA93"
        fill-rule="evenodd"/>
  <path clip-rule="evenodd"
        d="M57.9665 5.70873C53.5143 12.4218 48.471 18.613 43.3928 24.8739C42.1754 26.3695 42.4013 28.5609 43.897 29.7609C45.3926 30.9783 47.5841 30.7522 48.7841 29.2565C54.0014 22.8391 59.184 16.4565 63.7753 9.55214C64.8362 7.95214 64.3839 5.79569 62.7839 4.73483C61.2013 3.67396 59.0274 4.10873 57.9665 5.70873Z"
        fill="#F5FA93"
        fill-rule="evenodd"/>
  <path clip-rule="evenodd"
        d="M75.2128 30.6652C63.1433 31.2043 50.3259 31.2217 38.2563 30.4565C36.3432 30.3521 34.6911 31.7956 34.5693 33.7261C34.4476 35.6391 35.9085 37.2913 37.8215 37.413C50.1346 38.1782 63.2129 38.1608 75.526 37.6217C77.439 37.5347 78.9345 35.9 78.8475 33.987C78.7606 32.0739 77.1259 30.5782 75.2128 30.6652Z"
        fill="#F5FA93"
        fill-rule="evenodd"/>
  <path clip-rule="evenodd"
        d="M31.681 32.8737C39.1244 41.9867 46.8289 50.9259 53.7332 60.4563C54.8637 62.0042 57.0377 62.3519 58.6029 61.2215C60.1507 60.091 60.4984 57.917 59.368 56.3692C52.3767 46.7344 44.5855 37.691 37.055 28.4736C35.8376 26.9953 33.6462 26.7693 32.168 27.9867C30.6723 29.2041 30.4636 31.3954 31.681 32.8737Z"
        fill="#F5FA93"
        fill-rule="evenodd"/>
  <path clip-rule="evenodd"
        d="M33.935 35.5179C35.8828 45.0136 36.422 54.0919 36.5611 63.7093C36.5785 65.6223 38.1611 67.1527 40.0742 67.1353C42.0046 67.1005 43.535 65.5353 43.5002 63.6048C43.3611 53.5353 42.7872 44.0571 40.7525 34.1092C40.3525 32.231 38.5264 31.0135 36.6307 31.4135C34.7525 31.7961 33.535 33.6397 33.935 35.5179Z"
        fill="#F5FA93"
        fill-rule="evenodd"/>
  <path clip-rule="evenodd"
        d="M34.249 34.7531C28.6142 46.0226 25.7099 58.5444 19.6751 69.5705C18.7533 71.2401 19.3793 73.3617 21.0662 74.2835C22.7532 75.2052 24.8577 74.5791 25.7794 72.9095C31.849 61.8138 34.788 49.2226 40.475 37.8661C41.3272 36.1443 40.6315 34.0574 38.9271 33.1878C37.2054 32.3356 35.1186 33.0313 34.249 34.7531Z"
        fill="#F5FA93"
        fill-rule="evenodd"/>
  <path clip-rule="evenodd"
        d="M37.3501 32.1956C26.1327 34.1782 14.9327 35.0825 3.64573 36.4217C1.73268 36.6477 0.376161 38.3695 0.602248 40.2826C0.828335 42.1956 2.55024 43.5521 4.46328 43.3261C15.872 41.9869 27.2111 41.0478 38.5676 39.0478C40.4459 38.6999 41.7154 36.8912 41.385 35.013C41.0372 33.1173 39.2457 31.8478 37.3501 32.1956Z"
        fill="#F5FA93"
        fill-rule="evenodd"/>
  <path clip-rule="evenodd"
        d="M45.1554 26.9096C42.8423 26.8053 40.651 26.6487 38.3901 26.3182C36.4771 26.04 34.7205 27.3617 34.4423 29.2574C34.164 31.153 35.4857 32.927 37.3813 33.2052C39.8857 33.5705 42.3031 33.7444 44.8422 33.8487C46.7553 33.9357 48.39 32.4574 48.4596 30.5269C48.5465 28.6139 47.0684 26.9966 45.1554 26.9096Z"
        fill="#F5FA93"
        fill-rule="evenodd"/>
</svg>