<svg class="footer__logo-icon" fill="none" height="20" viewBox="0 0 20 20" width="20"
     xmlns="http://www.w3.org/2000/svg">
  <path
    d="M-0.00390625 4.49597C-0.00390625 3.3025 0.470199 2.1579 1.31411 1.31399C2.15803 0.470077 3.30262 -0.00402832 4.49609 -0.00402832H9.50409C10.6673 -0.00386424 11.7853 0.446743 12.6235 1.25328C13.4618 2.05981 13.9551 3.1596 14.0001 4.32197V9.67597C13.9654 10.5771 13.6609 11.447 13.126 12.1731C12.5911 12.8991 11.8505 13.4478 11.0001 13.748L11.0041 4.49597C11.0041 4.09815 10.8461 3.71662 10.5648 3.43531C10.2834 3.15401 9.90192 2.99597 9.50409 2.99597H4.49609C4.09827 2.99597 3.71674 3.15401 3.43543 3.43531C3.15413 3.71662 2.99609 4.09815 2.99609 4.49597V9.50397C2.99609 10.158 3.41609 10.714 4.00009 10.92V13.976C2.89935 13.8539 1.88228 13.3302 1.14353 12.5051C0.404777 11.68 -0.00376317 10.6115 -0.00390625 9.50397V4.49597ZM6.00009 15.5C6.00009 16.6934 6.4742 17.838 7.31811 18.682C8.16203 19.5259 9.30662 20 10.5001 20H15.5001C16.6936 20 17.8382 19.5259 18.6821 18.682C19.526 17.838 20.0001 16.6934 20.0001 15.5V10.5C20.0001 9.3931 19.5921 8.32506 18.8542 7.50006C18.1162 6.67505 17.1001 6.15096 16.0001 6.02797V9.08597C16.5821 9.29197 17.0001 9.84597 17.0001 10.5V15.5C17.0001 15.8978 16.8421 16.2793 16.5608 16.5606C16.2794 16.8419 15.8979 17 15.5001 17H10.5001C10.1023 17 9.72074 16.8419 9.43943 16.5606C9.15813 16.2793 9.00009 15.8978 9.00009 15.5V6.25597C8.12252 6.56624 7.36275 7.14101 6.82547 7.90109C6.28818 8.66117 5.99981 9.56916 6.00009 10.5V15.5Z"
    fill="white"/>
</svg>